<svg xmlns="http://www.w3.org/2000/svg" viewBox="0 0 100 100">
  <!-- Outer spiral - purple -->
  <circle cx="50" cy="8"  r="5.5" fill="#6B4FA0"/>
  <circle cx="72" cy="15" r="4.5" fill="#5BB8D4"/>
  <circle cx="87" cy="33" r="5"   fill="#6B4FA0"/>
  <circle cx="88" cy="55" r="4"   fill="#5BB8D4"/>
  <circle cx="76" cy="74" r="5"   fill="#6B4FA0"/>
  <circle cx="57" cy="87" r="4.5" fill="#5BB8D4"/>
  <circle cx="35" cy="88" r="5"   fill="#6B4FA0"/>
  <circle cx="17" cy="76" r="4"   fill="#5BB8D4"/>
  <circle cx="8"  cy="56" r="5"   fill="#6B4FA0"/>
  <circle cx="10" cy="33" r="4"   fill="#5BB8D4"/>
  <circle cx="23" cy="15" r="5"   fill="#6B4FA0"/>
  <!-- Middle spiral -->
  <circle cx="50" cy="18" r="3.5" fill="#5BB8D4"/>
  <circle cx="66" cy="24" r="3"   fill="#6B4FA0"/>
  <circle cx="76" cy="38" r="3.5" fill="#5BB8D4"/>
  <circle cx="77" cy="55" r="3"   fill="#6B4FA0"/>
  <circle cx="68" cy="70" r="3.5" fill="#5BB8D4"/>
  <circle cx="53" cy="78" r="3"   fill="#6B4FA0"/>
  <circle cx="37" cy="77" r="3.5" fill="#5BB8D4"/>
  <circle cx="24" cy="68" r="3"   fill="#6B4FA0"/>
  <circle cx="18" cy="53" r="3.5" fill="#5BB8D4"/>
  <circle cx="20" cy="37" r="3"   fill="#6B4FA0"/>
  <circle cx="30" cy="24" r="3.5" fill="#5BB8D4"/>
  <!-- Inner ring -->
  <circle cx="50" cy="30" r="2.5" fill="#6B4FA0"/>
  <circle cx="63" cy="36" r="2"   fill="#5BB8D4"/>
  <circle cx="68" cy="50" r="2.5" fill="#6B4FA0"/>
  <circle cx="62" cy="63" r="2"   fill="#5BB8D4"/>
  <circle cx="50" cy="68" r="2.5" fill="#6B4FA0"/>
  <circle cx="37" cy="62" r="2"   fill="#5BB8D4"/>
  <circle cx="32" cy="50" r="2.5" fill="#6B4FA0"/>
  <circle cx="37" cy="37" r="2"   fill="#5BB8D4"/>
</svg>
